# xmcd
#
# Track frame offsets:
#	150
#	10632
#	25264
#	37831
#	49860
#	61305
#	75027
#	88999
#	105328
#	124122
#	143022
#	157998
#	180293
#	194814
#	209462
#
# Disc length: 2989 seconds
#
# Revision: 0
# Processed by: cddbd v1.5.2PL0 Copyright (c) Steve Scherf et al.
# Submitted via: EZCDAudioConverter 2.1.7.1
#
DISCID=b40bab0f
DTITLE=V/A - Move On Up
DYEAR=2012
DGENRE=MOJO
TTITLE0=The Jam - Just Who Is The Five O'Clock Hero
TTITLE1=The Yardbirds - You're A Better Man Than I
TTITLE2=Lee Dorsey - Ride Your Pony
TTITLE3=Laurel Aitken - Bad Minded Woman
TTITLE4=The Beat - Twist And Crawl
TTITLE5=Prince Fatty and Hollie Cook - And The Beat Goes On Dub
TTITLE6=Andy Lewis featuring Keni Burke - (Love Is) Alive In My Heart
TTITLE7=Curtis Mayfield - Move On Up
TTITLE8=Aaron Neville - Hercules
TTITLE9=Terry Callier and Paul Weller - Brother To Brother
TTITLE10=The Moons - Jennifer (Sits Alone)
TTITLE11=Dexys - Nowhere Is Home
TTITLE12=Bruce Foxton - Number Six
TTITLE13=Wilko Johnson - Down By The Waterside
TTITLE14=The Jam - The Great Depression [Live]
EXTD=
EXTT0=
EXTT1=
EXTT2=
EXTT3=
EXTT4=
EXTT5=
EXTT6=
EXTT7=
EXTT8=
EXTT9=
EXTT10=
EXTT11=
EXTT12=
EXTT13=
EXTT14=
PLAYORDER=
